scaled_model_ID_test_static_coords.mot
version=1
datacolumns 20
datarows 41
range 0.000000 0.400000
inDegrees=yes
endheader
time	pelvis_tilt	pelvis_list	pelvis_rotation	hip_flexion_r	hip_adduction_r	hip_rotation_r	knee_angle_r	ankle_angle_r	hip_flexion_l	hip_adduction_l	hip_rotation_l	knee_angle_l	ankle_angle_l	pelvis_tx	pelvis_ty	pelvis_tz	lumbar_bending	lumbar_rotation	lumbar_extension
0.000000	10.179313	0.532268	-178.568588	13.228935	-5.408110	-4.347537	-8.239886	2.350348	11.011765	-6.084505	-4.700491	-7.793484	2.356357	0.689058	0.935726	-0.114180	-1.033290	-0.705097	7.644343
0.010000	10.140788	0.495869	-178.551768	13.172251	-5.410653	-4.551378	-8.131853	2.122065	11.143593	-6.165266	-4.917297	-8.158305	2.643999	0.689037	0.935898	-0.114408	-0.997152	-0.804096	7.623476
0.020000	10.054489	0.494945	-178.577977	13.083764	-5.387044	-4.780910	-8.104039	2.041846	11.132589	-6.243318	-4.941704	-8.343013	2.844039	0.689037	0.935694	-0.114384	-0.980314	-0.814463	7.515689
0.030000	10.038304	0.507625	-178.594919	13.073139	-5.378670	-4.789466	-8.134325	2.101916	11.087087	-6.246186	-4.906892	-8.292797	2.848869	0.689034	0.935506	-0.114289	-0.988021	-0.781145	7.488804
0.040000	10.029269	0.522256	-178.612678	13.071048	-5.371655	-4.775360	-8.171593	2.179238	11.040811	-6.244705	-4.882859	-8.227034	2.851563	0.689029	0.935293	-0.114184	-0.997632	-0.741700	7.471948
0.050000	10.029299	0.537034	-178.629951	13.079085	-5.366687	-4.739194	-8.210206	2.261887	11.003086	-6.241658	-4.882125	-8.160878	2.858063	0.689021	0.935079	-0.114088	-1.006403	-0.701357	7.469957
0.060000	10.037393	0.550483	-178.646669	13.096043	-5.363686	-4.687376	-8.245237	2.338533	10.978439	-6.240458	-4.907819	-8.106223	2.869585	0.689012	0.934888	-0.114013	-1.012348	-0.664473	7.483247
0.070000	10.049583	0.560990	-178.663980	13.117550	-5.362585	-4.632815	-8.273137	2.401144	10.965285	-6.243297	-4.952369	-8.069114	2.883050	0.689002	0.934734	-0.113965	-1.015622	-0.634687	7.506995
0.080000	10.060653	0.566296	-178.684142	13.137744	-5.364238	-4.591773	-8.292072	2.446512	10.957411	-6.249111	-5.000391	-8.048974	2.892893	0.688987	0.934625	-0.113938	-1.018289	-0.615393	7.532933
0.090000	10.066429	0.563405	-178.709805	13.151932	-5.370995	-4.578000	-8.302203	2.475759	10.947545	-6.252823	-5.034358	-8.040536	2.894342	0.688965	0.934560	-0.113923	-1.022810	-0.609979	7.552746
0.100000	10.065309	0.549603	-178.742606	13.158473	-5.385828	-4.597181	-8.305561	2.492450	10.931130	-6.247255	-5.040672	-8.037487	2.886420	0.688935	0.934534	-0.113904	-1.030642	-0.620944	7.561294
0.110000	10.058406	0.524603	-178.782100	13.158672	-5.409459	-4.645083	-8.304903	2.500582	10.908249	-6.227706	-5.013971	-8.035781	2.872591	0.688901	0.934543	-0.113872	-1.041706	-0.647863	7.558167
0.120000	10.048323	0.491879	-178.825575	13.154901	-5.438280	-4.710280	-8.302026	2.503681	10.882855	-6.195655	-4.957864	-8.035234	2.859542	0.688867	0.934581	-0.113829	-1.054856	-0.686118	7.546777
0.130000	10.037378	0.457382	-178.868479	13.148378	-5.466007	-4.779041	-8.296683	2.504675	10.860237	-6.157910	-4.882207	-8.038911	2.855050	0.688839	0.934644	-0.113782	-1.069224	-0.728163	7.531614
0.140000	10.026512	0.426724	-178.905560	13.138360	-5.487446	-4.839363	-8.286977	2.505736	10.844366	-6.122407	-4.799375	-8.050669	2.865562	0.688821	0.934725	-0.113741	-1.085379	-0.766290	7.515586
0.150000	10.015547	0.403403	-178.932980	13.123469	-5.500492	-4.882905	-8.271242	2.508495	10.836221	-6.094917	-4.721849	-8.071916	2.894232	0.688813	0.934817	-0.113716	-1.104959	-0.794513	7.499256
0.160000	10.004320	0.388745	-178.950535	13.103920	-5.505507	-4.905176	-8.249871	2.514312	10.833588	-6.078469	-4.661038	-8.099530	2.939424	0.688811	0.934910	-0.113711	-1.128852	-0.809068	7.482229
0.170000	9.993535	0.382478	-178.962235	13.082506	-5.503961	-4.904815	-8.225483	2.523505	10.832406	-6.074160	-4.625821	-8.126886	2.994074	0.688807	0.934993	-0.113724	-1.155765	-0.808548	7.465171
0.180000	9.984576	0.383143	-178.974362	13.063410	-5.497776	-4.882812	-8.201580	2.533864	10.828804	-6.081735	-4.620146	-8.147413	3.047338	0.688792	0.935057	-0.113754	-1.182837	-0.794134	7.450641
0.190000	9.978608	0.388419	-178.992392	13.049925	-5.488960	-4.842328	-8.180959	2.540483	10.820538	-6.099555	-4.640735	-8.157927	3.088524	0.688762	0.935095	-0.113793	-1.207661	-0.769547	7.442175
0.200000	9.975967	0.395695	-179.018882	13.043112	-5.478965	-4.789033	-8.164998	2.537835	10.807470	-6.124536	-4.676847	-8.159464	3.111321	0.688714	0.935108	-0.113834	-1.229636	-0.740224	7.442668
0.210000	9.976412	0.402713	-179.053022	13.042261	-5.468332	-4.730899	-8.154031	2.522448	10.791602	-6.152385	-4.713347	-8.156037	3.116124	0.688651	0.935098	-0.113871	-1.249747	-0.711918	7.453271
0.220000	9.979835	0.407924	-179.091599	13.046506	-5.457245	-4.676583	-8.148258	2.494419	10.776934	-6.178278	-4.736001	-8.152976	3.109128	0.688581	0.935073	-0.113902	-1.269097	-0.689280	7.473187
0.230000	9.986627	0.410540	-179.130852	13.056142	-5.446459	-4.632971	-8.148399	2.457877	10.768400	-6.197962	-4.736279	-8.155164	3.098445	0.688515	0.935043	-0.113922	-1.287358	-0.674885	7.499971
0.240000	9.997102	0.410424	-179.167996	13.072279	-5.437758	-4.603378	-8.155441	2.420352	10.769641	-6.208784	-4.713475	-8.165211	3.089640	0.688466	0.935013	-0.113924	-1.302591	-0.668957	7.529846
0.250000	10.010207	0.407836	-179.201692	13.094828	-5.433489	-4.587517	-8.169494	2.390462	10.780699	-6.210082	-4.673596	-8.182610	3.083941	0.688445	0.934986	-0.113901	-1.312677	-0.669877	7.558022
0.260000	10.022686	0.403081	-179.231803	13.120482	-5.435454	-4.583018	-8.188515	2.374796	10.796920	-6.202871	-4.625899	-8.204084	3.079665	0.688456	0.934961	-0.113852	-1.317022	-0.675099	7.579621
0.270000	10.029720	0.396424	-179.258867	13.142539	-5.443838	-4.586833	-8.208013	2.375603	10.810008	-6.189358	-4.579105	-8.224748	3.075253	0.688493	0.934934	-0.113778	-1.317408	-0.681814	7.591314
0.280000	10.026869	0.388384	-179.283419	13.153096	-5.456770	-4.595402	-8.222257	2.390281	10.811270	-6.172692	-4.539019	-8.240088	3.071564	0.688542	0.934904	-0.113689	-1.317719	-0.687279	7.592740
0.290000	10.012305	0.379920	-179.305442	13.146454	-5.470980	-4.604500	-8.226267	2.412983	10.795466	-6.156441	-4.507992	-8.247622	3.071274	0.688584	0.934872	-0.113599	-1.322550	-0.689382	7.586782
0.300000	9.988002	0.372202	-179.323979	13.121620	-5.483358	-4.609898	-8.217434	2.436920	10.763142	-6.143411	-4.485724	-8.247401	3.076658	0.688602	0.934839	-0.113520	-1.335496	-0.687493	7.578379
0.310000	9.959017	0.366216	-179.337043	13.082458	-5.492298	-4.608703	-8.196143	2.455727	10.720331	-6.134509	-4.470652	-8.241685	3.088151	0.688586	0.934809	-0.113462	-1.358100	-0.682822	7.572378
0.320000	9.931439	0.362639	-179.342576	13.035903	-5.497725	-4.600702	-8.165314	2.464094	10.675810	-6.128753	-4.461239	-8.233818	3.103758	0.688533	0.934786	-0.113424	-1.389398	-0.677624	7.571769
0.330000	9.910315	0.361993	-179.340291	12.989767	-5.500034	-4.588733	-8.129419	2.458656	10.637527	-6.124624	-4.457028	-8.226648	3.119148	0.688448	0.934770	-0.113405	-1.425701	-0.673673	7.577379
0.340000	9.898495	0.364615	-179.332809	12.951170	-5.499307	-4.577178	-8.093580	2.439189	10.610279	-6.121567	-4.459362	-8.221530	3.128970	0.688342	0.934762	-0.113392	-1.460942	-0.671351	7.588719
0.350000	9.896547	0.370242	-179.325146	12.925703	-5.495363	-4.569294	-8.062698	2.409099	10.595475	-6.120507	-4.471407	-8.218445	3.128730	0.688229	0.934759	-0.113379	-1.487759	-0.670114	7.604966
0.360000	9.903402	0.377555	-179.322912	12.916847	-5.488237	-4.565252	-8.040268	2.374425	10.592390	-6.123141	-4.497137	-8.216975	3.116094	0.688130	0.934761	-0.113363	-1.499156	-0.669797	7.625306
0.370000	9.917177	0.384126	-179.330159	12.925447	-5.478644	-4.562237	-8.027223	2.341755	10.599821	-6.130461	-4.539356	-8.217563	3.091512	0.688064	0.934766	-0.113348	-1.490364	-0.671519	7.648736
0.380000	9.935833	0.387085	-179.348035	12.949597	-5.468123	-4.556503	-8.021754	2.316100	10.617103	-6.141642	-4.597296	-8.222235	3.058499	0.688045	0.934776	-0.113344	-1.460191	-0.677280	7.673787
0.390000	9.957401	0.384284	-179.374425	12.984938	-5.458858	-4.545948	-8.020418	2.299753	10.643964	-6.154021	-4.665362	-8.234065	3.023372	0.688079	0.934788	-0.113360	-1.411733	-0.688469	7.698368
0.400000	9.979659	0.375390	-179.404318	13.025061	-5.453188	-4.531544	-8.019867	2.292576	10.679329	-6.164193	-4.734288	-8.255447	2.993867	0.688159	0.934803	-0.113394	-1.352490	-0.704341	7.719672
